/* XPM */
static char * galternatives_xpm[] = {
"30 32 344 2",
"  	c None",
". 	c #1B1B1B",
"+ 	c #4A4A4A",
"@ 	c #424242",
"# 	c #171717",
"$ 	c #282828",
"% 	c #C4C4C4",
"& 	c #858585",
"* 	c #ACACAC",
"= 	c #B5B5B5",
"- 	c #B6B6B6",
"; 	c #A8A8A8",
"> 	c #545454",
", 	c #1D1D1D",
"' 	c #989898",
") 	c #646464",
"! 	c #C7C7C7",
"~ 	c #E8E8E8",
"{ 	c #878787",
"] 	c #5A5A5A",
"^ 	c #C2C2C2",
"/ 	c #C3C3C3",
"( 	c #616161",
"_ 	c #666666",
": 	c #CCCCCC",
"< 	c #949494",
"[ 	c #A9A9A9",
"} 	c #F5F5F5",
"| 	c #DBDBDB",
"1 	c #343434",
"2 	c #323232",
"3 	c #686868",
"4 	c #696969",
"5 	c #6A6A6A",
"6 	c #606060",
"7 	c #0E0E0E",
"8 	c #020202",
"9 	c #363B2D",
"0 	c #3C4235",
"a 	c #414A41",
"b 	c #404F54",
"c 	c #2D363D",
"d 	c #0E1012",
"e 	c #575757",
"f 	c #BBBBBB",
"g 	c #AAAAAA",
"h 	c #E4E4E4",
"i 	c #FAFAFA",
"j 	c #FDFDFD",
"k 	c #777777",
"l 	c #5B5B5B",
"m 	c #7A7A7A",
"n 	c #585858",
"o 	c #383838",
"p 	c #161922",
"q 	c #3E3D2D",
"r 	c #888A64",
"s 	c #90987B",
"t 	c #91A090",
"u 	c #9BAFAA",
"v 	c #8A9DA6",
"w 	c #384855",
"x 	c #999B9C",
"y 	c #ADADAD",
"z 	c #A6A6A6",
"A 	c #E2E2E2",
"B 	c #DDDDDD",
"C 	c #848484",
"D 	c #363636",
"E 	c #191919",
"F 	c #20040B",
"G 	c #5B0E22",
"H 	c #3E1E25",
"I 	c #19070C",
"J 	c #555453",
"K 	c #3B3B3C",
"L 	c #3B3E44",
"M 	c #999169",
"N 	c #CEC693",
"O 	c #C1C0A3",
"P 	c #CDD4C2",
"Q 	c #E9ECD0",
"R 	c #E8ECD7",
"S 	c #A1B5BA",
"T 	c #5E7279",
"U 	c #858686",
"V 	c #DCDCDC",
"W 	c #5E0D24",
"X 	c #9B163B",
"Y 	c #B0163F",
"Z 	c #C41642",
"` 	c #9F1939",
" .	c #492E34",
"..	c #545452",
"+.	c #505246",
"@.	c #92906E",
"#.	c #D2CC97",
"$.	c #D7D4AC",
"%.	c #F6F4CC",
"&.	c #EEF1CD",
"*.	c #E1E7C5",
"=.	c #B4C5B8",
"-.	c #486C88",
";.	c #A6ABB0",
">.	c #A1A1A0",
",.	c #1E1E1E",
"'.	c #13110D",
").	c #531D28",
"!.	c #851634",
"~.	c #AC173E",
"{.	c #C61643",
"].	c #C61A46",
"^.	c #581A2A",
"/.	c #1F1E1E",
"(.	c #3C4440",
"_.	c #485B60",
":.	c #969A82",
"<.	c #CDBE90",
"[.	c #C7C697",
"}.	c #ADC098",
"|.	c #8DAAA7",
"1.	c #6793B5",
"2.	c #45709B",
"3.	c #495155",
"4.	c #312D28",
"5.	c #71694F",
"6.	c #A69976",
"7.	c #624942",
"8.	c #791631",
"9.	c #A8183F",
"0.	c #AF2749",
"a.	c #24100D",
"b.	c #112011",
"c.	c #263B42",
"d.	c #243F55",
"e.	c #435B6A",
"f.	c #97947B",
"g.	c #BDB184",
"h.	c #C9BF95",
"i.	c #7E99A5",
"j.	c #4C7DAD",
"k.	c #4C7297",
"l.	c #989278",
"m.	c #4E4735",
"n.	c #8D8363",
"o.	c #D4C494",
"p.	c #C8B98D",
"q.	c #806F5C",
"r.	c #451E26",
"s.	c #473522",
"t.	c #2C530E",
"u.	c #1C3810",
"v.	c #1D363B",
"w.	c #213C4F",
"x.	c #274258",
"y.	c #556669",
"z.	c #9D9D78",
"A.	c #D2C796",
"B.	c #86989A",
"C.	c #42698F",
"D.	c #83867A",
"E.	c #9D8F70",
"F.	c #605744",
"G.	c #867C5D",
"H.	c #CDBD8F",
"I.	c #82795D",
"J.	c #3D5722",
"K.	c #316310",
"L.	c #1F3E0C",
"M.	c #162A24",
"N.	c #1E3849",
"O.	c #243F53",
"P.	c #3D505B",
"Q.	c #606C69",
"R.	c #A19A7A",
"S.	c #5C6D74",
"T.	c #747B74",
"U.	c #B2A17A",
"V.	c #857762",
"W.	c #4F4739",
"X.	c #8B8061",
"Y.	c #D3C393",
"Z.	c #D0C191",
"`.	c #847E5A",
" +	c #264111",
".+	c #2B3C18",
"++	c #403C32",
"@+	c #52554F",
"#+	c #616963",
"$+	c #60675F",
"%+	c #62645A",
"&+	c #918669",
"*+	c #B7A67C",
"=+	c #B8A77D",
"-+	c #A99977",
";+	c #706454",
">+	c #2D2820",
",+	c #857A5D",
"'+	c #CFBF91",
")+	c #D0C092",
"!+	c #D3C293",
"~+	c #D3C394",
"{+	c #CEBF90",
"]+	c #A29672",
"^+	c #9B8E6D",
"/+	c #90816C",
"(+	c #92836D",
"_+	c #9E8F72",
":+	c #AC9C78",
"<+	c #B9A87D",
"[+	c #98896F",
"}+	c #63594A",
"|+	c #322D23",
"1+	c #B6A486",
"2+	c #B7A686",
"3+	c #BEAD89",
"4+	c #C5B48C",
"5+	c #CCBC8F",
"6+	c #BDAC81",
"7+	c #AF9F79",
"8+	c #A59575",
"9+	c #9D8D72",
"0+	c #96866F",
"a+	c #99866D",
"b+	c #A7876B",
"c+	c #B97C5F",
"d+	c #B89570",
"e+	c #A39273",
"f+	c #554C3E",
"g+	c #010100",
"h+	c #AF9D83",
"i+	c #B2A084",
"j+	c #BCAA89",
"k+	c #BAA888",
"l+	c #BBAA88",
"m+	c #BAA97E",
"n+	c #BA8F6C",
"o+	c #BA5042",
"p+	c #B94C3F",
"q+	c #B78466",
"r+	c #B87F62",
"s+	c #B83D34",
"t+	c #B92625",
"u+	c #B9352F",
"v+	c #B78C6A",
"w+	c #5A513C",
"x+	c #0F0D0A",
"y+	c #AE9C82",
"z+	c #C3B38C",
"A+	c #D1C192",
"B+	c #C9B98D",
"C+	c #BA9D76",
"D+	c #BA352F",
"E+	c #BA2323",
"F+	c #BA302C",
"G+	c #BA2F2B",
"H+	c #B92221",
"I+	c #B82020",
"J+	c #BA2524",
"K+	c #B27E61",
"L+	c #383125",
"M+	c #000000",
"N+	c #B09E83",
"O+	c #CABA8F",
"P+	c #CFBF90",
"Q+	c #BCAB7F",
"R+	c #BA9873",
"S+	c #BB2323",
"T+	c #BA2222",
"U+	c #B92121",
"V+	c #A18267",
"W+	c #312C24",
"X+	c #010101",
"Y+	c #BDAC89",
"Z+	c #D2C293",
"`+	c #CDBD8E",
" @	c #BBAA7F",
".@	c #BAA47A",
"+@	c #BA5F4B",
"@@	c #BA2625",
"#@	c #BA2E2B",
"$@	c #BA7F61",
"%@	c #9F8F71",
"&@	c #2C2822",
"*@	c #C5B58C",
"=@	c #BAA279",
"-@	c #BA7259",
";@	c #BA342F",
">@	c #BA2D2A",
",@	c #BA7A5D",
"'@	c #BAA87D",
")@	c #2B2621",
"!@	c #030303",
"~@	c #C8B88E",
"{@	c #CFBE8F",
"]@	c #BA4D3F",
"^@	c #BA2927",
"/@	c #BA6F56",
"(@	c #BAA67C",
"_@	c #9C8D70",
":@	c #352F28",
"<@	c #D2C192",
"[@	c #BCAB80",
"}@	c #BAA078",
"|@	c #BA6953",
"1@	c #85785F",
"2@	c #383329",
"3@	c #BEAD81",
"4@	c #BAA77D",
"5@	c #BAA87E",
"6@	c #938564",
"7@	c #393529",
"8@	c #2A261E",
"9@	c #030302",
"0@	c #AC9F78",
"a@	c #C5B587",
"b@	c #B4A47A",
"c@	c #6F654B",
"d@	c #1A1812",
"e@	c #020201",
"f@	c #776E53",
"g@	c #CBBC8D",
"h@	c #C8B88A",
"i@	c #B0A077",
"j@	c #988A67",
"k@	c #59513C",
"l@	c #16140F",
"m@	c #030202",
"n@	c #72694F",
"o@	c #807659",
"p@	c #A09470",
"q@	c #C8B98B",
"r@	c #B8A77C",
"s@	c #938664",
"t@	c #484130",
"u@	c #1A1711",
"v@	c #645C45",
"w@	c #373327",
"x@	c #7C7357",
"y@	c #978C69",
"z@	c #8C805F",
"A@	c #7D7154",
"B@	c #474030",
"C@	c #040302",
"                                                            ",
"                                              . +           ",
"                  @ @                       # $ % &         ",
"              + * = - ; >                 , ' ) ! ~ {       ",
"              ] ^ / % ^ (                 _ : < [ } | 1     ",
"              2 3 4 5 6 7 8 9 0 a b c d e f g [ h i j k     ",
"              l m 5 n o p q r s t u v w x y z A B C D E     ",
"            F G H I J K L M N O P Q R S T U V ^ _           ",
"          W X Y Z `  ...+.@.#.$.%.&.*.=.-.;.>.,.            ",
"        '.).!.~.{.].^./.(._.:.<.[.}.|.1.2.3.4.              ",
"        5.6.7.8.9.0.a.b.c.d.e.f.g.h.i.j.k.l.m.              ",
"        n.o.p.q.r.s.t.u.v.w.x.y.z.A.B.C.D.E.F.              ",
"        G.o.o.H.I.J.K.L.M.N.O.P.Q.R.S.T.U.V.W.              ",
"        X.Y.o.o.Z.`. +.+++@+#+$+%+&+*+=+-+;+>+              ",
"        ,+'+)+!+~+{+]+^+/+(+_+:+U.*+<+=+[+}+                ",
"        |+1+2+3+4+5+6+<+7+8+9+0+a+b+c+d+e+f+                ",
"        g+h+i+j+k+l+m+m+n+o+p+q+r+s+t+u+v+w+                ",
"        x+y+z+Y.A+B+m+C+D+E+E+F+G+H+I+J+K+L+                ",
"        M+N+O+o.Y.P+Q+R+E+S+E+E+E+T+U+E+V+W+                ",
"        X+Y+Z+o.Y.`+ @.@+@@@E+E+E+E+#@$@%@&@                ",
"        X+*@o.o.Y.`+m+m+=@-@;@E+E+>@,@'@%@)@                ",
"        !@~@o.o.o.{@Q+m+m+m+m+]@^@/@(@m+_@:@                ",
"        X+A+o.o.o.<@[@m+m+m+m+}@|@C+m+m+1@2@                ",
"        M+P+o.o.o.Y.3@m+m+m+m+m+4@5@<+6@7@8@                ",
"        9@0@o.Y.~+o.a@m+m+m+m+m+m+b@c@d@e@                  ",
"          f@g@Y.Y.o.h@m+m+m+m+i@j@k@l@m@                    ",
"          n@o@p@q@Y.`+[@m+r@s@t@u@9@                        ",
"              v@w@x@y@z@A@B@l@C@                            ",
"                                                            ",
"                                                            ",
"                                                            ",
"                                                            "};
